<?xml version="1.0" standalone="no"?>
<!DOCTYPE svg PUBLIC "-//W3C//DTD SVG 20010904//EN"
 "http://www.w3.org/TR/2001/REC-SVG-20010904/DTD/svg10.dtd">
<svg version="1.0" xmlns="http://www.w3.org/2000/svg"
 width="271.000000pt" height="271.000000pt" viewBox="0 0 271.000000 271.000000"
 preserveAspectRatio="xMidYMid meet">
<metadata>
Created by potrace 1.11, written by Peter Selinger 2001-2013
</metadata>
<g transform="translate(0.000000,271.000000) scale(0.100000,-0.100000)"
fill="#000000" stroke="none">
<path d="M678 2203 c-2 -10 -3 -152 -3 -315 l1 -298 -128 0 -128 0 0 -95 0
-95 -211 -2 -210 -3 92 -93 93 -92 -94 -95 -95 -95 341 0 340 0 17 -72 c55
-238 224 -396 475 -444 98 -19 284 -18 380 2 244 50 422 221 464 447 l13 67
337 0 c186 0 338 3 338 6 0 3 -40 44 -90 92 l-89 87 97 98 97 97 -213 0 -212
0 0 95 0 95 -130 0 -130 0 0 315 0 315 -210 0 -210 0 0 -315 0 -315 -255 0
-255 0 0 315 0 315 -209 0 c-191 0 -209 -2 -213 -17z m762 -791 c0 -94 -1 -98
-22 -99 -20 -2 -21 -1 -5 8 20 12 24 87 5 108 -10 11 -10 13 0 7 9 -5 12 4 12
33 0 23 2 41 5 41 3 0 5 -44 5 -98z m-328 76 c8 -7 18 -22 22 -33 4 -15 0 -12
-15 8 -44 58 -109 23 -109 -59 0 -58 8 -74 44 -90 19 -8 24 -13 13 -14 -10 0
-29 11 -42 25 -34 34 -36 124 -3 155 25 23 66 26 90 8z m578 -25 c-11 -17 -11
-17 -6 0 3 10 6 24 7 30 0 9 2 9 5 0 3 -7 0 -20 -6 -30z m-416 -32 c27 -30 25
-89 -3 -112 -31 -25 -47 -24 -78 7 -21 21 -24 32 -19 62 9 60 64 83 100 43z
m111 12 c-51 -12 -62 -88 -19 -122 15 -12 22 -21 15 -21 -6 0 -20 9 -31 20
-40 40 -16 132 34 129 20 -1 20 -2 1 -6z m189 -9 c9 -8 16 -24 16 -35 0 -16
-7 -19 -50 -19 -56 0 -65 -15 -30 -50 23 -23 33 -24 63 -9 21 10 21 10 3 -5
-27 -22 -43 -20 -71 9 -31 30 -33 77 -5 105 24 24 53 26 74 4z m-659 -16 c-22
-11 -43 -26 -47 -32 -4 -6 -10 -7 -14 -3 -4 4 -5 9 -3 11 10 9 85 45 94 45 6
0 -8 -9 -30 -21z m744 -42 c-12 -31 -24 -55 -26 -53 -2 2 6 30 18 61 12 31 24
55 26 53 2 -2 -6 -30 -18 -61z m141 40 l44 -24 -52 -26 c-28 -14 -55 -26 -59
-26 -4 1 15 13 42 27 l50 26 -50 23 c-27 13 -43 24 -35 23 8 0 35 -10 60 -23z
m-870 -56 c19 -11 31 -19 25 -19 -5 0 -26 8 -45 19 -19 11 -30 19 -25 19 6 0
26 -8 45 -19z m198 -22 c-8 -12 -21 -24 -29 -26 -8 -2 -6 2 4 8 9 6 17 18 17
25 0 8 5 15 11 15 7 0 6 -8 -3 -22z m475 -137 c13 -2 7 -155 -8 -216 -29 -109
-95 -163 -211 -173 -120 -9 -210 33 -256 121 -17 33 -23 65 -26 144 -2 57 -2
108 1 115 3 10 60 13 248 11 134 0 247 -2 252 -2z"/>
<path d="M1196 1418 c-22 -31 -20 -64 4 -88 30 -30 57 -25 78 16 11 22 6 60
-11 82 -15 19 -54 14 -71 -10z"/>
<path d="M1507 1422 c-25 -28 -21 -32 28 -32 46 0 58 13 33 38 -17 17 -42 15
-61 -6z"/>
</g>
</svg>
